<?xml version="1.0" encoding="UTF-8"?>
<svg version="1.1" viewBox="0 0 1536 2048" width="3024" height="4032" xmlns="http://www.w3.org/2000/svg">
<path transform="translate(934,456)" d="m0 0h16l10 4 6 7 3 7v18l-8 34-1 8 2 19 4 15 7 17 9 16 10 14 9 11 8 8 7 4 9 4 13 5 8 6 3 7v7l-4 8-1 4 13 2 13 5 9 6 9 9 6 13 2 10 1 10 9 3 10 8 7 8 8 15 6 18 3 17v28l-4 19-8 22-9 16-10 14-13 13-11 8-15 6-4 1h-16l-1-1-3-17-1-16-4-9-3-17-6-15-8-16-6-9-8-6-9 1-2 2-1 6v11l5 15 7 11 4 12v40l-4 11-7 11-9 10-15 11-16 9-10 5-17 7-21 7-24 5-33 1-2 10-1 21 4 32 2 20v15l-3 10-8 11-3 3h-2l-1 3-13 8-13 6-8 3-3 4-1 3v7l13-5 23-10 2 2-6 17-3 15-1 21-41 1h-9l-8 7-5 5-10 8-14 7-10 3h-19l-12-4-13-9-9-9-6-7-34 1h-50l-1-2-2-24-2-12-3-10-7-13 1-4 6-8 2-10-1-29-2-17-4-15-2-4-15-10-11-9-5-7v-3h7l17 4 5 5 3 7 3 9 8 17 10 19 10 17 8 12 4 5v2l3 1 3 4v2l4 2 4 5 10 8 10 6 4 2h5v-11l-3-3-8-5-10-8-7-8-9-10-4-6-10-16-6-11-13-24-8-19-4-13-1-1-20-3-17-5-12-6-10-9-6-10-4-14v-14l3-23-4 4-7 12-4 6-2-1 1-10 3-17v-4l-9-4-2-3 2-11 4-15 6-11 8-9v-5l-9-9 1-7 4-5 9-6 7-2 11-1 1-2 1-14 2-2 7-1h12l12 2-2-9v-5l6-2h9l10 3 16 8 11 6 10 7 10 8 9 9 6 1 10-9 14-11 10-8 14-9 36-20 15-7 13-6 43-14 22-4 9-1h24l5-4 7-8 3-4v-12l-3-24-8-27-8-19-8-16-8-13-6-9-10-14-10-12-14-14-4-3v-2l-4-2-14-11-10-7-11-7-18-10-13-6-8-2v-5l6-8v-12l-2-6v-11l4-11 4-6 8-7 10-2 12 2 30 9 23 5 7 1h33l20-2 22-5 20-7zm-181 13-5 2-7 10-1 3v8l3 9-1 16 8 5 24 14 12 8 5 4 8 6 9 7h2v2l8 7 16 16 1 2h2l2 4 10 13 7 11 9 15 8 16 6 13 7 20 6 27 1 16 1 2 6-2 15-10 17-10 19-9 18-6 31-7 22-2 7-4 5-6 2-4-1-5-5-3-12-6-11-4-9-7-11-11-13-19-6-9-9-16-8-22-2-17v-20l3-16 4-17v-17l-3-5-3-2h-15l-16 5-24 7-15 3-21 2h-30l-31-5-17-5-20-6zm272 222-28 2-29 7-16 6-19 9-33 22-12 10-8 7-4 6 2 6 8 10 9 7 12 9 9 6 16 7 21 7 14 2h21l21-3 16-6 8-4 11-7 10-8 13-13 8-11 7-15 1-5v-20l-3-10-4-6-8-7-10-5-17-3zm-403 194-8 4-6 9-1 10 3 7 4-1 6-12 6-4 12-2 2-2-1-4-8-5zm14 40-1 1v12l3 29 5 29 6 21 5 12 3 5h5l9-8 4-4 10-6 13-4 7-1h15l8 2 9 1 4-5 10-5 4-1h14l11 2 10 6 5 4 6 8 8 15 3 14 2 24 1 14 4-1 11-8 5-9v-10l-5-14-5-11-4-12v-13l3-5 7-6-1-2-28-1-18-3-24-7-20-8-12-5-29-14-39-22-22-14zm122 89-8 4-4 5-5 8h-8v-2l-10-6-5-1-16 1-15 5-11 8-6 7-2 5 6 9 9 12 5 12v11l-8 38-1 7v26l4 15 6 12 9 10 10 8 8 4 4 1h8l18-4 16-10 6-5 8-10 7-11 6-12 7-19 5-27 1-7v-40l-2-18-5-16-8-11-11-7-5-2z" fill="#FEFEFD"/>
<path transform="translate(1122,1119)" d="m0 0h30l18 3 17 5 20 9 11 7 11 9 6 6v2l3 1 11 15 6 11 6 15 5 21 2 19v17l-3 18-6 16-6 11-9 9-6 4-3 3 4 8 4 2 6 5 7 9 7 10 6 10 6 15 3 17v24l-3 15-7 17-7 12-11 14-9 10-8 7-9 7-10 7-17 9-24 8-12 3-24 3h-24l-23-3-20-6-13-5-16-8-14-10-11-9-11-11-8-10-12-19-8-17-4-10-62-1h-210l-103 1-130 2-2 1-6 18-8 15-7 10-8 10-5 5-11 10-14 10-19 10-19 7-27 7-11 1h-27l-15-2-21-6-21-9-19-12-16-15-9-11-10-15-8-16-4-16-2-15v-19l3-19 3-10 6-10 9-11 13-10 2-1-1-4-5-5-5-4-9-11-11-21-5-20v-26l4-18 9-20 7-11 10-13 18-18 11-8 13-8 23-11 24-7 11-2 12-1h22l21 3 27 8 7 3h6l8-4 8-2h10l35 5h15l35-5 19-2h12l10 3 10 8 6 9 6 16 2 10v27l-4 14-5 10-6 8 83-2 176-2h39v-2l-4-2-8-16-3-14v-25l4-18 5-10 4-6 7-7 12-6h30l36 4h25l20-4 10-1h13l9 2 10 7 8 7 5-1 16-7 20-7 22-5zm-9 13-22 4-15 5-15 6-15 8-11 8-9 7-13 12-9 11-7 10-6 10-8 19-3 12h-35l-159 2-228 3-102 1-2-17-5-19-5-12-7-12-8-10-5-6-8-7-11-8-14-8-15-6-19-5-6-1-16-1h-14l-14 1-27 7-21 10-11 7-9 7-11 10-5 5-10 11-9 15-7 18-3 16v22l3 15 8 18 9 11 13 13 8 5h2l-8 10-14 11-11 11-6 10-3 15-1 13v12l3 22 5 12 6 11 8 11 12 14 7 7 12 9 11 6 11 5 18 5 18 3h34l22-5 12-4 18-8 14-9 14-12 7-7 10-13 5-8 7-16 7-21 22-1 257-3 8 1h45l6-1 22-1h91l82 1 1 10 4 12 8 16 9 14 12 14 7 7 7 6 15 10 14 7 14 5 19 5 15 2 27 1 20-2 18-5 15-6 14-8 14-10v-2l4-2 12-12 12-17 8-16 4-13 1-6v-24l-4-16-4-11-7-13-12-14-11-9-11-8 3-5 13-10 6-5 6-9 7-15 3-13 1-10v-11l-2-23-3-14-7-18-9-15-9-11-9-8-10-7-16-8-9-4-22-5-7-1zm-200 63-3 3-3 7-3 15-5 11 1 1h26l3-2-6-10-1-4-1-18-3-3zm-402 6-3 5-1 15-4 9-3 5v2h29l-1-5-4-11-4-14-4-6z" fill="#FEFEFD"/>
<path transform="translate(528,498)" d="m0 0h9l10 2 6 4 5 5 9 15-1 6-5 4-4-2-8-13-5-6-7-2h-13l-10 5-10 10-9 11-13 11-14 10-22 14-20 13-16 10-17 10-13 8-10 6-13 8-16 10-15 9-8 5-11 6-16 8-12 7-29 12-21 11-9 7h-2l-2 4-3 1-2 5-4 7-1 3v20l4 12 4 9 7 12 8 8 8 6 11 7 15 10 19 12 14 9 13 10 6 4v2l4 2 10 9 7 7 9 11 6 8 7 10 13 20 9 16 10 18 9 16 6 11 4 6 6 5 2 1h6l4-4h2l2-4 10-12 14-19 4-8 2-9 4-40 5-31 5-21 6-25 4-32v-25l-5-20-6-15-11-25-6-15-3-13-1-7v-13l3-12 6-11 9-11 10-8 5-1 1 6-5 9-7 9-6 10-2 8v14l3 16 7 19 7 15 7 17 5 13 3 17v20l-3 30-7 31-5 19-6 31-1 8-1 23-2 15-5 14 1 8 5 12 3 7 8 14 9 12 12 14 3 2v2l4 2 12 9 8 5 8 4 7 8 9 6-1 3-11-3-15-5-12-7-10-7-12-11-5-4-7-8-9-12-8-14-8-16-3-3-5 5-7 10-6 9-7 6-7 3h-8l-10-4-10-9-10-17-13-24-11-19-6-11-11-17-7-10-9-12-12-13-8-7-18-13-17-12-20-13-19-12-12-9-12-11-9-11-6-10-5-18-1-12 2-13 5-13 9-11 12-10 10-6 17-8 25-11 30-15 15-9 17-10 19-12 60-36 17-11 16-10 22-16 16-12 4-4h2l2-4 7-8 8-8 8-5 5-2z" fill="#FEFEFD"/>
<path transform="translate(659,512)" d="m0 0h11l21 3 17 4 1 4-3 6-1 7v23l2 12 10 30 8 19 7 16 8 16 11 23 10 19 13 28 11 24-1 4-10 5-19 8-12 5-5-1-8-19-2-20-4-15-8-16-3-12-7-14-6-9-8-10-10-7-11-6-8-11-7-11-11-17-5-9-4-21-4-6v-2l-9-3-6-4-6-7-15-7-19-4 2-4 21-10 16-5 20-4z" fill="#FEFEFD"/>
<path transform="translate(652,651)" d="m0 0h12l10 4 9 7 8 9 7 11 7 16 7 18 4 16v12l-4 10-7 8-6 4-10 6-7 4-16 6-19 4h-19l-11-4-8-8-4-11v-4l4 1 13 10 9 4 11 2 29-1 6-4 3-5-8-1-6-5-2-5 1-9 4-5 8-4 7 1 8 4v-11l-3-14-8-13-9-8-10-5-14-3-13 1-17 6-1-4 6-15 8-11 7-7z" fill="#FEFEFD"/>
<path transform="translate(771,613)" d="m0 0h9l16 3 17 8 11 9 6 7 7 11 7 16 6 19 1 5v9l-3 6-7 7-15 6-20 4h-8v-2l11-6 2-4-6-4-2-2v-7l3-5 5-4 5 1 6 3-2-16-6-12-4-4v-2l-5-2-8-4-4-1h-12l-9 2-9 5-5 1-4-8-1-4v-10l2-13 6-8z" fill="#FEFEFD"/>
<path transform="translate(1028,1271)" d="m0 0h10l8 2 11 6 10 9 4 9v9l-6 15-9 14-8 11-6 8-1 4 6 3 7-8h5l5 6 1 2v12l-6 8-8 3-13-1-12-6-6 1-7 3h-8l-3-6v-16l3-7 3-1h11l6-7 7-10 8-14 5-11 1-8-1-4-5-2-6-2-1 1-1 15-2 4-10 5-8 1-2-3v-14l4-15 8-13z" fill="#FEFEFD"/>
<path transform="translate(1117,1274)" d="m0 0h10l9 5 7 9 6 17 1 7v20l-4 16-4 11-7 10-6 7-9 6-3 1h-13l-8-5-8-9-5-13-1-5v-22l5-19 5-12 7-11 8-8zm3 21-5 4-6 11-5 15-1 7v24l3 6 5 2 5-3 5-7 6-18 2-10v-23l-3-6-3-2z" fill="#FEFEFD"/>
<path transform="translate(756,1269)" d="m0 0h12l6 4 7 9 5 15 1 6v20l-5 21-8 16-8 9-9 6-3 1h-15l-6-4-6-8-5-12-1-4v-23l5-19 5-12 6-10 8-9 8-5zm2 21-5 5-7 14-4 13-1 6v23l3 5 1 1 7-1 4-5 5-10 6-23v-21l-2-5-3-2z" fill="#FEFEFD"/>
<path transform="translate(609,1267)" d="m0 0h7l10 4 4 4 4 7 1 7-1 9-6 11-5 4 1 4 4 7 1 5v13l-2 9-7 11-6 7-8 5-7 2h-11l-8-4-6-7-4-11v-13l4-12 7-9 6-5-4-10v-14l6-12 7-7 9-4zm0 15-6 7-2 5v9l2 3h7l5-6 2-8-1-7-3-3zm-8 43-7 8-4 10v10l3 4h6l5-4 4-7 2-9-1-9-3-3z" fill="#FEFEFD"/>
<path transform="translate(330,1267)" d="m0 0h13l8 5 6 9v15l-5 10-6 7 2 5 3 9v15l-2 8-7 12-8 7-7 4-8 2h-8l-7-3-7-6-3-6-2-8 1-13 4-11 6-8 6-5-1-5-3-9 2-13 4-8 8-8 8-4zm2 15-5 6-3 7v6l2 4 6 1 5-6 3-7v-7l-3-4zm-8 42-8 9-3 9v11l3 3h6l7-8 3-9v-12l-3-3z" fill="#FEFEFD"/>
<path transform="translate(963,1271)" d="m0 0 12 1 8 6 7 8 4 14v14l-4 17-10 19-9 12-5 6-5 5-7 6h-5l-6-7-2-7 8-10 8-9 6-8 1-3-9 3h-11l-9-5-6-10-1-5v-12l3-10 6-10 6-7 10-6zm-1 18-6 5-5 11-1 3v8l3 5 2 1 9-1 5-4 5-11v-11l-5-6z" fill="#FEFEFD"/>
<path transform="translate(892,1270)" d="m0 0h11l8 3 3 3 1 3v9l-4 8-8 10-5 5-2 3 5 5 6 8 2 9v9l-4 13-7 10-7 7-9 4-8 1-9-3-5-3-8-8-3-5 1-6 5-6 5-4h5l6 10 5 4 4 1 4-5 2-6v-13l-4-5-3-2-6 1-4 2h-8l-1-2v-7l4-10 4-4 11-3 8-10 1-5-10 1-10 4-4 2-4-1 1-9 5-10 6-4 12-3z" fill="#FEFEFD"/>
<path transform="translate(482,1267)" d="m0 0 10 1 9 5 6 9 3 8v20l-5 16-7 14-6 8-7 9-14 14-4 3-4-1-6-8-1-4 9-11 9-10 6-9-5 1-8 2-10-2-8-7-3-7-1-9 3-14 5-9 9-10 9-6 5-2zm-3 18-5 5-5 8-1 3v13l4 4h6l8-6 4-7 1-6v-8l-2-5-1-1z" fill="#FEFEFD"/>
<path transform="translate(691,1268)" d="m0 0 7 1v2l4 2 2 4v15l-4 19v6l12-1 1 4-3 7-6 7-9 4-6 24-6 12-4 1-6-4-2-3-1-5 1-17 1-8-19-4-5-4-2-4 1-10 4-15 8-18 5-8 5-1 6 6 1 9-9 27h9l3-13 6-24 5-10z" fill="#FEFEFD"/>
<path transform="translate(405,1267)" d="m0 0h8l7 5 1 3v11l-3 18-8 34-4 16-4 13-4 7h-5l-8-7-1-4 1-15 9-38 4-14-11 6-4-1-2-4v-11l6-7 12-9z" fill="#FEFEFD"/>
<path transform="translate(995,707)" d="m0 0h12l5 4-2 5-14 7-19 7-15 5-4 1h-9l-1-1 1-7 5-5 14-8 19-6z" fill="#FEFEFD"/>
<path transform="translate(634,712)" d="m0 0h7l8 4 5 8v9l-4 6-5 4-3 1h-10l-7-4-3-5-1-4v-7l2-5 6-5z" fill="#FEFEFD"/>
<path transform="translate(812,1323)" d="m0 0h25l1 5-2 6-4 6-4 3h-28l-1-5 6-11z" fill="#FEFEFD"/>
<path transform="translate(532,1321)" d="m0 0h25l1 5-6 11-5 4-27 1-2-4 6-12 5-4z" fill="#FEFEFD"/>
<path transform="translate(778,664)" d="m0 0h8l5 4 3 6v9l-4 8-5 4h-6l-6-4-4-8v-7l4-8 2-3z" fill="#FEFEFD"/>
<path transform="translate(917,736)" d="m0 0 9 1 5 4 1 3-10 4-11 3-3-1 1-7 5-5z" fill="#FEFEFD"/>
<path transform="translate(495,591)" d="m0 0 2 1v2h-3z" fill="#FEFEFD"/>
</svg>
